<svg
        xmlns="http://www.w3.org/2000/svg"
        viewBox="-191 -127 450 450"
        height="1000"
        width="1000"
        style="background: rgb(0,0,0)"
>
    <path fill-rule="evenodd" fill="rgb(255, 255, 255)"
          d="M259.0,98.999 C259.0,127.997 259.0,157.2 259.0,185.999 C244.412,187.805 231.162,177.254 216.0,173.999 C216.0,173.999 200.214,173.485 199.0,173.999 C196.477,175.67 196.278,179.37 191.0,178.0 C189.561,177.717 184.792,176.965 182.0,175.999 C181.0,175.0 179.999,173.999 178.999,173.0 C176.666,173.333 174.333,173.666 172.0,173.999 C159.510,174.353 145.235,175.792 132.999,179.999 C130.107,180.994 125.231,184.360 121.999,185.0 C116.493,186.89 111.210,181.875 104.999,183.0 C103.0,184.999 100.999,187.0 98.999,189.0 C98.999,189.666 98.999,190.333 98.999,191.0 C100.833,192.284 100.711,192.967 103.0,194.0 C118.732,206.38 138.379,194.154 157.999,194.0 C169.998,194.666 182.1,195.333 194.0,196.0 C199.905,194.724 209.855,192.246 218.0,194.0 C231.909,196.995 242.459,200.10 259.0,200.0 C259.0,240.995 259.0,282.4 259.0,322.999 C225.670,322.999 192.329,322.999 159.0,322.999 C146.17,323.1 125.490,325.789 116.0,321.0 C110.961,318.457 107.287,312.989 103.0,309.999 C96.98,305.187 86.979,301.559 81.999,295.0 C79.949,292.299 79.995,288.852 77.999,285.999 C74.0,283.0 69.999,279.999 65.999,277.0 C61.490,270.286 64.579,256.803 59.999,250.0 C59.230,248.857 38.0,230.426 36.999,230.0 C32.758,228.191 28.986,230.597 26.0,227.999 C16.320,219.582 7.244,193.49 2.999,179.0 C-11.916,129.618 31.712,108.608 65.999,97.999 C71.999,97.666 78.0,97.333 83.999,96.999 C93.703,94.858 126.978,96.655 132.0,98.999 C134.373,101.58 134.172,104.371 134.0,108.999 C131.116,113.214 134.38,121.116 134.999,125.0 C137.17,126.274 139.57,129.2 140.999,130.0 C146.76,132.606 151.594,131.766 157.0,133.999 C165.32,137.318 177.242,148.746 191.0,144.999 C200.714,142.354 204.367,130.992 213.0,127.999 C216.764,126.695 223.751,128.635 226.0,128.999 C229.333,128.333 232.666,127.666 236.0,126.999 C240.344,120.238 242.515,110.524 241.0,102.0 C235.344,99.378 224.769,92.82 219.0,90.999 C212.869,89.849 204.844,97.15 196.999,95.0 C185.815,92.126 178.793,84.467 165.999,84.0 C163.995,88.811 162.953,92.741 155.999,92.999 C152.19,95.740 143.847,95.333 139.0,96.999 C139.0,94.333 139.0,91.666 139.0,89.0 C134.915,82.546 143.228,71.52 145.999,66.999 C154.312,54.843 163.177,38.46 170.0,24.999 C173.816,17.702 174.404,9.366 181.0,4.999 C184.20,2.274 196.174,-1.940 201.999,1.999 C212.41,5.33 211.222,11.787 216.0,19.999 C220.711,28.97 227.363,37.418 231.0,45.999 C233.611,52.162 231.797,57.289 234.0,65.0 C235.261,69.417 239.363,72.395 241.0,75.999 C243.318,81.105 243.15,96.641 248.0,98.999 C250.949,100.925 254.846,99.324 259.0,98.999 ZM150.0,221.999 C149.347,223.874 149.48,225.912 149.0,228.999 C155.621,232.315 163.683,236.973 170.999,238.999 C187.205,243.487 221.503,238.731 223.0,226.0 C222.333,226.0 221.666,226.0 221.0,226.0 C214.67,221.782 199.743,228.270 191.999,227.999 C178.1,226.0 163.998,223.999 150.0,221.999 Z"/>
</svg>